<svg xmlns="http://www.w3.org/2000/svg" width="151" height="110" viewBox="0 0 151 110" fill="none"><path d="M53 1.8L57.5 12.1H48.5L53 1.8ZM53.1 0L45.1 18.2H45.8L48.2 12.6H57.7L60.1 18.2H61.9L54 0H53.1Z" fill="#EDDED0"></path><path d="M68.2 11V0H69.9V11.4C69.9 15.2 72.5 17.7 76.3 17.7C80.1 17.7 82.6 15.2 82.6 11.4V0H83.2V11.4C83.2 15.6 80.4 18.4 76 18.4C71.4 18.4 68.2 15.5 68.2 11Z" fill="#EDDED0"></path><path d="M103.5 0L97.9 8.2L92.1 0H90.2L96.8 9.3L90.6 18.2H91.4L97.2 9.9L103 18.2H104.9L98.3 8.8L104.3 0H103.5Z" fill="#EDDED0"></path><path d="M43.6 41.3H37.2V58.9H35.6V41.3H29.2V40.8H43.6V41.3Z" fill="#EDDED0"></path><path d="M52.7 50.6H57.7C60.7 50.6 62.7 48.8 62.7 45.9C62.7 43.1 60.7 41.2 57.7 41.2H52.7V50.6ZM65.7 58.9H63.7C63.1 58.4 62.6 57.9 62.3 57.4L59.4 52.7C59 52.1 58.4 51.5 57.7 51.1H52.7V58.9H51V40.7H57.9C61.6 40.7 64.4 42.9 64.4 45.8C64.4 48.5 62.1 50.6 59 51C60.1 51.3 61 51.9 61.4 52.7L64 56.9C64.5 57.8 65.2 58.6 65.7 58.9Z" fill="#EDDED0"></path><path d="M88.2 49.9C88.2 44.6 85.2 41.1 80.6 41.1C76 41.1 73 44.6 73 49.9C73 55.2 76 58.7 80.6 58.7C85.2 58.7 88.2 55.2 88.2 49.9ZM71.3 49.9C71.3 44.6 75.3 40.6 80.7 40.6C86 40.6 90.1 44.6 90.1 49.9C90.1 55.2 86.1 59.2 80.7 59.2C75.3 59.2 71.3 55.2 71.3 49.9Z" fill="#EDDED0"></path><path d="M99.7 40.8H98V58.9H99.7V40.8Z" fill="#EDDED0"></path><path d="M107.9 54.3H108.5C108.5 56.8 111.1 58.7 114.3 58.7C117.4 58.7 119.6 57.2 119.6 55.1C119.6 52.8 117.1 51.8 114.2 50.6C111.6 49.6 108.4 48.3 108.4 45.3C108.4 42.5 111 40.6 114.5 40.6C117.7 40.6 120.2 42.6 120.2 45.2H119.6C119.6 42.8 117.4 41.1 114.6 41.1C111.8 41.1 109.7 42.7 109.7 44.7C109.7 47 112.4 48.1 115 49.1C118 50.3 120.9 51.4 120.9 54.4C120.9 57.4 118.2 59.2 114.5 59.2C110.7 59.2 107.9 57.1 107.9 54.3Z" fill="#EDDED0"></path><path d="M0 95H0.599998C0.599998 97.5 3.19999 99.4 6.39999 99.4C9.49999 99.4 11.7 97.9 11.7 95.8C11.7 93.5 9.2 92.5 6.3 91.3C3.7 90.3 0.5 89 0.5 86C0.5 83.2 3.1 81.3 6.6 81.3C9.8 81.3 12.3 83.3 12.3 85.9H11.7C11.7 83.5 9.5 81.8 6.7 81.8C3.9 81.8 1.8 83.4 1.8 85.4C1.8 87.7 4.5 88.8 7.1 89.8C10.1 91 13 92.1 13 95.1C13 98.1 10.3 99.9 6.6 99.9C2.9 100 0 97.8 0 95Z" fill="#EDDED0"></path><path d="M33.6 99.2V99.7H21V81.5H33.3V82.1H22.7V90.2H31.2V90.8H22.7V99.2H33.6Z" fill="#EDDED0"></path><path d="M56.1 81.5V99.7H55.2L41.9 82.5V99.7H41.3V81.5H43.2L55.5 97.3V81.5H56.1Z" fill="#EDDED0"></path><path d="M77.9 82.1H71.5V99.7H69.9V82.1H63.5V81.5H77.9V82.1Z" fill="#EDDED0"></path><path d="M87 81.5H85.3V99.7H87V81.5Z" fill="#EDDED0"></path><path d="M108.8 99.2V99.7H96.3V81.5H108.6V82.1H97.9V90.2H106.5V90.8H97.9V99.2H108.8Z" fill="#EDDED0"></path><path d="M118.3 91.4H123.3C126.3 91.4 128.3 89.6 128.3 86.7C128.3 83.9 126.3 82 123.3 82H118.3V91.4ZM131.3 99.7H129.3C128.7 99.2 128.2 98.7 127.9 98.2L125 93.5C124.6 92.9 124 92.3 123.3 91.9H118.3V99.7H116.6V81.5H123.5C127.2 81.5 130 83.7 130 86.6C130 89.3 127.7 91.4 124.6 91.8C125.7 92.1 126.6 92.7 127 93.5L129.6 97.7C130.1 98.5 130.8 99.3 131.3 99.7Z" fill="#EDDED0"></path><path d="M137.1 95H137.7C137.7 97.5 140.3 99.4 143.5 99.4C146.6 99.4 148.8 97.9 148.8 95.8C148.8 93.5 146.3 92.5 143.4 91.3C140.8 90.3 137.6 89 137.6 86C137.6 83.2 140.2 81.3 143.7 81.3C146.9 81.3 149.4 83.3 149.4 85.9H148.8C148.8 83.5 146.6 81.8 143.8 81.8C141 81.8 138.9 83.4 138.9 85.4C138.9 87.7 141.6 88.8 144.2 89.8C147.2 91 150.1 92.1 150.1 95.1C150.1 98.1 147.4 99.9 143.7 99.9C139.9 100 137.1 97.8 137.1 95Z" fill="#EDDED0"></path><path d="M87 26.9H63.1V27.8H87V26.9Z" fill="#EDDED0"></path><path d="M87 67.7H63.1V68.6H87V67.7Z" fill="#EDDED0"></path><path d="M87 108.4H63.1V109.3H87V108.4Z" fill="#EDDED0"></path></svg>
